<svg width="24" height="30" viewBox="0 0 24 30" fill="none" xmlns="http://www.w3.org/2000/svg">
<path fill-rule="evenodd" clip-rule="evenodd" d="M23.0768 25.0353L12.6768 29.8512C12.248 30.0496 11.7528 30.0496 11.3232 29.8512L0.923201 25.0353C0.36 24.7741 0 24.2129 0 23.5961V1.58757C0 0.71044 0.716001 0 1.6 0H22.4C23.284 0 24 0.71044 24 1.58757V23.5961C24 24.2129 23.64 24.7741 23.0768 25.0353ZM11.7272 27.5143L11.5272 27.4333L7.29681 25.5234C6.90561 25.3456 6.69761 24.9321 6.78961 24.5177C6.88001 24.1034 7.24241 23.8136 7.66961 23.8136H16.312C16.744 23.8136 17.1064 24.1065 17.1952 24.5256C17.284 24.9448 17.0688 25.3575 16.6728 25.529L12.1096 27.5063L11.9016 27.515L11.7272 27.5143ZM6.22481 13.138V14.8573H2.7592V3.96894H6.22481V5.68828H4.49201V8.55385H6.22481V10.2724H4.49201V13.138H6.22481ZM14.888 3.96894H13.1552V14.8573H14.888V3.96894ZM10.0344 11.4186H9.11281V14.8573H7.38001V3.96894H9.31601H9.89921C11.3056 3.96894 12 4.66191 12 6.06454V9.44528C12 10.7661 11.3496 11.4186 10.0344 11.4186ZM9.68961 5.68828H9.11201V9.70008H9.68961C10.0088 9.70008 10.2672 9.44369 10.2672 9.12697V6.26139C10.2672 5.94467 10.0088 5.68828 9.68961 5.68828ZM21.2408 12.8228V10.8455H19.508V12.4648C19.508 12.9244 19.2848 13.138 18.8216 13.138H18.4784C17.9976 13.138 17.7752 12.9244 17.7752 12.4648V9.12617V6.93294V6.2606C17.7752 5.94388 18.0336 5.68749 18.3528 5.68749H18.9304C19.2496 5.68749 19.508 5.94388 19.508 6.2606V6.83372V7.97994H21.2408V6.04469C21.2408 4.64445 20.5392 3.96814 19.0848 3.96814H18.216C16.7624 3.96814 16.0432 4.66033 16.0432 6.06136V12.7649C16.0432 14.1651 16.7624 14.8573 18.216 14.8573H19.096C20.5312 14.8573 21.2408 14.1842 21.2408 12.8228ZM21.1808 19.9034L21.1904 19.951L21.1952 19.9987L21.2 20.0511V20.1035V20.113V20.1654L21.1952 20.2178L21.1904 20.2646L21.1856 20.317L21.176 20.3646L21.1616 20.4122L21.1528 20.4551L21.1384 20.5027L21.1184 20.5456L21.1 20.5837L21.0808 20.6266L21.0568 20.6647L21.0328 20.7028L21.004 20.7409L20.98 20.7782L20.952 20.8115L20.9184 20.8456L20.8896 20.8734L20.8512 20.9068L20.8184 20.9353L20.78 20.9639L20.7416 20.9877L20.704 21.0163L20.6608 21.0401L20.6176 21.0592L20.5752 21.083L20.5272 21.1012L20.48 21.1211L20.432 21.1346L20.384 21.1489L20.3408 21.1632L20.2936 21.1727L20.2504 21.1822L20.2072 21.1925L20.1592 21.2013L20.112 21.206L20.0696 21.2108L20.0216 21.2163L19.9688 21.2203L19.9208 21.2251H19.8736H19.8208H19.768H19.7208L19.6728 21.2203H19.62L19.5728 21.2163L19.5248 21.2108L19.4728 21.206L19.4256 21.1965L19.3776 21.1925L19.3296 21.1822L19.2816 21.1727L19.2336 21.1632L19.1864 21.1536L19.1384 21.1393L19.096 21.1306L19.048 21.1155L19 21.1012L18.9576 21.083L18.9096 21.0679L18.8664 21.0536L18.8192 21.0354L18.776 21.0163L18.7336 20.9973L18.6904 20.9734L18.6472 20.9544L18.6048 20.9306L18.5664 20.9068L18.5232 20.883L18.4848 20.8591L18.4464 20.8353L18.4088 20.8068L18.3704 20.7782L18.332 20.7504L18.2936 20.721L18.2608 20.6932L18.2224 20.6591L18.2512 20.6218L18.2848 20.5885L18.3136 20.5504L18.3472 20.5123L18.3752 20.4789L18.404 20.4408L18.4376 20.4027L18.4656 20.3694L18.5 20.3313L18.528 20.2979L18.5616 20.2598L18.5896 20.2225L18.6184 20.1884L18.652 20.1511L18.6808 20.113L18.7136 20.0796L18.7424 20.0415L18.7808 20.0701L18.824 20.0987L18.8624 20.1273L18.9048 20.1551L18.9432 20.1789L18.9856 20.2082L19.024 20.2321L19.0672 20.2503L19.1048 20.2741L19.148 20.294L19.1912 20.3122L19.2336 20.3313L19.2768 20.3456L19.32 20.3646L19.368 20.3789L19.4152 20.3932L19.4584 20.4075L19.5064 20.417L19.5544 20.4265L19.6016 20.4361L19.6536 20.4408L19.7016 20.4503H19.7496L19.8016 20.4551H19.8496H19.9072L19.9592 20.4503L20.0072 20.4408L20.0496 20.4313L20.0928 20.4218L20.1312 20.4075L20.1648 20.3892L20.2032 20.3598L20.2312 20.3273L20.2504 20.2884L20.2648 20.2463L20.2696 20.1987V20.1884L20.2648 20.1312L20.2456 20.0844L20.2216 20.0511L20.1888 20.0225L20.1504 19.9939L20.112 19.9749L20.0696 19.9558L20.0216 19.9368L19.964 19.9129L19.9312 19.9034L19.8928 19.8939L19.8496 19.8796L19.8064 19.8701L19.7592 19.8558L19.7112 19.8471L19.6592 19.832L19.6112 19.8232L19.5584 19.8082L19.5112 19.7994L19.4632 19.7844L19.4152 19.7756L19.368 19.7613L19.324 19.7463L19.2768 19.7375L19.2336 19.7224L19.1912 19.7082L19.148 19.6947L19.096 19.6748L19.048 19.6566L19 19.6367L18.9528 19.6185L18.9096 19.5946L18.8624 19.5708L18.824 19.547L18.7808 19.5232L18.7424 19.4946L18.704 19.4708L18.6712 19.4422L18.6376 19.4089L18.6048 19.3756L18.5752 19.3422L18.5472 19.3089L18.5232 19.2755L18.5 19.2374L18.476 19.1954L18.456 19.162L18.4416 19.1239L18.428 19.0811L18.4136 19.043L18.404 18.9953L18.3944 18.9525L18.3896 18.9048L18.3848 18.8572L18.38 18.8056V18.7532V18.7437V18.6961L18.3848 18.6484L18.3896 18.6056L18.3944 18.558L18.404 18.5151L18.4136 18.4722L18.428 18.4294L18.4376 18.3865L18.456 18.3444L18.476 18.3008L18.4944 18.2587L18.5184 18.2158L18.5424 18.173L18.5704 18.1349L18.5992 18.0968L18.6328 18.0587L18.6664 18.0253L18.7 17.9872L18.7376 17.9539L18.7712 17.9301L18.8096 17.9015L18.8472 17.8729L18.8856 17.8491L18.9288 17.8261L18.972 17.8062L19.0144 17.7824L19.0576 17.7634L19.1048 17.7491L19.1528 17.7308L19.196 17.7165L19.2336 17.707L19.2768 17.6975L19.32 17.688L19.368 17.6776L19.4104 17.6689L19.4584 17.6641L19.5064 17.6594L19.5544 17.6538L19.6016 17.6499H19.6496H19.7016H19.7544H19.8064L19.8592 17.6538L19.9112 17.6594H19.9592L20.012 17.6641L20.06 17.6737L20.112 17.6776L20.1592 17.688L20.2032 17.6975L20.2504 17.707L20.2976 17.7165L20.3408 17.7253L20.3888 17.7396L20.432 17.7546L20.4744 17.7634L20.5224 17.7824L20.5656 17.7967L20.6088 17.8166L20.6512 17.8348L20.6984 17.8539L20.7416 17.8777L20.78 17.8967L20.8232 17.9205L20.8664 17.9444L20.904 17.9682L20.9472 17.9967L20.9856 18.0206L21.024 18.0491L21.0616 18.0777L21.1 18.1063L21.0712 18.1444L21.0472 18.1825L21.0184 18.2198L20.9896 18.2587L20.9616 18.3008L20.9376 18.3389L20.9088 18.377L20.8808 18.4151L20.8568 18.454L20.828 18.4913L20.7992 18.5294L20.7752 18.5675L20.7464 18.6103L20.7176 18.6484L20.6896 18.6865L20.6656 18.7239L20.6368 18.762L20.5984 18.7342L20.556 18.7104L20.5176 18.6865L20.48 18.658L20.4368 18.6389L20.3984 18.6151L20.3552 18.5961L20.3176 18.577L20.2736 18.558L20.236 18.5389L20.1928 18.5246L20.1552 18.5056L20.1024 18.4913L20.0544 18.477L20.0072 18.4627L19.9592 18.454L19.9112 18.4436L19.864 18.4341L19.816 18.4294L19.768 18.4246L19.7256 18.4198H19.6776H19.62L19.568 18.4294L19.52 18.4389L19.4776 18.4484L19.4392 18.4675L19.4056 18.4865L19.3624 18.5246L19.3344 18.5675L19.3152 18.6103L19.3104 18.658V18.6675L19.3152 18.7294L19.3392 18.7818L19.3584 18.8096L19.3912 18.8429L19.4344 18.8667L19.4728 18.8906L19.52 18.9104L19.5728 18.9287L19.6304 18.9485L19.668 18.958L19.7064 18.9715L19.7496 18.981L19.792 18.9953L19.84 19.0049L19.8928 19.0191L19.9448 19.0334L19.9976 19.0477L20.0496 19.0572L20.0976 19.0715L20.1504 19.0858L20.1984 19.0953L20.2456 19.1096L20.2936 19.1239L20.336 19.1382L20.384 19.1525L20.4272 19.1668L20.4696 19.1811L20.5224 19.2001L20.5696 19.2239L20.6176 19.2422L20.6656 19.266L20.7088 19.2898L20.752 19.3136L20.7896 19.3375L20.828 19.366L20.8664 19.3898L20.904 19.4232L20.9424 19.4565L20.976 19.4946L21.0096 19.528L21.0376 19.5653L21.0664 19.6089L21.0904 19.647L21.1144 19.6899L21.1328 19.728L21.1472 19.7701L21.1616 19.8129L21.1712 19.8558L21.1808 19.9034ZM17.8008 20.3837H17.7536H17.7056H17.6584H17.6104H17.5624H17.5152H17.4672H17.4144H17.3664H17.3192H17.272H17.2232H17.176H17.1288H17.0808H17.0328H16.9856H16.9376H16.8896H16.8416H16.7944H16.7464H16.6992H16.6512H16.6032H16.556H16.508H16.4552H16.408H16.36H16.312H16.2648H16.2168H16.1688H16.1216H16.0744H16.0264V20.336V20.2836V20.236V20.1884V20.1368V20.0892V20.0415V19.9892V19.9415V19.8939V19.8415V19.7939H16.0744H16.1216H16.1688H16.2168H16.2648H16.312H16.36H16.408H16.4512H16.4984H16.5464H16.5936H16.6416H16.6896H16.7368H16.7848H16.8328H16.8808H16.928H16.976H17.024H17.0712H17.1184H17.1664H17.2144H17.2616H17.3048H17.3528H17.4008H17.448H17.496H17.5432H17.5912H17.6384H17.6864V19.7463V19.7042V19.6566V19.6089V19.5653V19.5184V19.4708V19.4232V19.3803V19.3327V19.2851V19.2422V19.1954V19.1477V19.1049V19.0572H17.6384H17.5912H17.5432H17.496H17.448H17.4008H17.3528H17.3048H17.2616H17.2144H17.1664H17.1184H17.0712H17.024H16.976H16.928H16.8808H16.8328H16.7848H16.7368H16.6896H16.6416H16.5936H16.5464H16.4984H16.4512H16.408H16.36H16.312H16.2648H16.2168H16.1688H16.1216H16.0744H16.0264V19.0096V18.962V18.9144V18.8667V18.8191V18.7715V18.7294V18.6818V18.6342V18.5865V18.5389V18.4913H16.0744H16.1216H16.1688H16.2168H16.2648H16.312H16.3552H16.4032H16.4512H16.4984H16.5464H16.5936H16.6416H16.6896H16.7368H16.7848H16.8328H16.8808H16.928H16.9704H17.0184H17.0664H17.1144H17.1616H17.2096H17.2576H17.3048H17.3528H17.4008H17.448H17.496H17.5432H17.5864H17.6344H17.6816H17.7296H17.7776H17.8248H17.8728V18.4436V18.4008V18.3532V18.3055V18.2587V18.2158V18.1682V18.1206V18.0777V18.0301V17.9825V17.9396V17.892V17.8443V17.7967V17.7546V17.707H17.8248H17.7776H17.7296H17.6816H17.6344H17.5864H17.5384H17.4912H17.4432H17.396H17.348H17.3H17.252H17.2048H17.1616H17.1144H17.0664H17.0184H16.9704H16.9232H16.8752H16.828H16.78H16.732H16.6848H16.6368H16.5896H16.5416H16.4936H16.4464H16.3984H16.3504H16.3032H16.2552H16.2072H16.1592H16.112H16.064H16.0168H15.9688H15.9216H15.8736H15.8264H15.7824H15.7352H15.6872H15.64H15.592H15.5448H15.4968H15.4488H15.4016H15.3536H15.3056H15.2576H15.2096H15.1624H15.1144V17.7546V17.8023V17.8491V17.8967V17.9444V17.992V18.0396V18.0872V18.1349V18.1825V18.2293V18.277V18.3246V18.3722V18.4198V18.4675V18.5151V18.5627V18.6056V18.6524V18.7V18.7477V18.7953V18.8429V18.8906V18.9382V18.9858V19.0334V19.0811V19.1287V19.1763V19.2239V19.2708V19.3184V19.366V19.4137V19.4613V19.5089V19.5565V19.6042V19.6518V19.6986V19.7463V19.7939V19.8415V19.8891V19.9368V19.9844V20.032V20.0796V20.1273V20.1749V20.2225V20.2702V20.3122V20.3598V20.4075V20.4551V20.5027V20.5504V20.598V20.6456V20.6932V20.7409V20.7885V20.8353V20.883V20.9306V20.9782V21.0258V21.0735V21.1211V21.1687H15.1624H15.2096H15.2576H15.3056H15.3536H15.4016H15.4488H15.4968H15.5448H15.5968H15.644H15.692H15.74H15.788H15.8352H15.8832H15.9312H15.9784H16.0264H16.0744H16.1216H16.1688H16.2168H16.2648H16.312H16.36H16.408H16.4552H16.508H16.556H16.6032H16.6512H16.6992H16.7464H16.7944H16.8416H16.8896H16.9376H16.9856H17.0328H17.0808H17.1288H17.176H17.2232H17.272H17.3192H17.3664H17.4144H17.4672H17.5152H17.5624H17.6104H17.6584H17.7056H17.7536H17.8008H17.8488H17.8968V21.1211V21.0774V21.0298V20.9822V20.9353V20.8933V20.8456V20.798V20.7544V20.7067V20.6591V20.617V20.5694V20.5218V20.4742V20.4313V20.3837H17.8488H17.8008ZM14.272 17.707H14.3152H14.3624H14.4104V17.7546V17.8023V17.8491V17.8967V17.9444V17.992V18.0396V18.0872V18.1349V18.1825V18.2293V18.277V18.3246V18.3722V18.4198V18.4675V18.5151V18.5627V18.6056V18.6524V18.7V18.7477V18.7953V18.8429V18.8906V18.9382V18.9858V19.0334V19.0811V19.1287V19.1763V19.2239V19.2708V19.3184V19.366V19.4137V19.4613V19.5089V19.5565V19.6042V19.6518V19.6986V19.7463V19.7939V19.8415V19.8891V19.9368V19.9844V20.032V20.0796V20.1273V20.1749V20.2225V20.2702V20.3122V20.3598V20.4075V20.4551V20.5027V20.5504V20.598V20.6456V20.6932V20.7409V20.7885V20.8353V20.883V20.9306V20.9782V21.0258V21.0735V21.1211V21.1687H14.3624H14.3152H14.2672H14.2144H14.1672H14.1192H14.072H14.024H13.976H13.924H13.876H13.828H13.78H13.7328H13.6848H13.6328H13.5848H13.5376H13.4896V21.1211V21.0735V21.0258V20.9782V20.9298V20.8822V20.8345V20.7869V20.7401V20.6924V20.6448V20.5972V20.5496V20.5019V20.4543V20.4067V20.3591V20.3114V20.2638V20.2162V20.1685V20.1209V20.0733V20.0257V19.978V19.9304V19.8836V19.836V19.7875V19.7399V19.6923V19.6454V19.5978V19.5502V19.5018V19.4541V19.4065V19.3597V19.3121V19.2644V19.2168V19.1692V19.1215L13.4656 19.1596L13.4368 19.2025L13.4128 19.2406L13.3848 19.2787L13.3608 19.3208L13.332 19.3597L13.308 19.3978L13.284 19.4406L13.256 19.4787L13.232 19.5161L13.2032 19.555L13.1792 19.5978L13.1512 19.6359L13.1272 19.674L13.1032 19.7169L13.0744 19.755L13.0504 19.7931L13.0224 19.836L12.9984 19.8741L12.9696 19.9122L12.9456 19.955L12.9216 19.9931L12.8936 20.0312L12.8696 20.0741L12.8408 20.1122L12.8168 20.1503L12.788 20.1884L12.764 20.2313L12.7408 20.2694L12.7112 20.3075L12.688 20.3503L12.6592 20.3884L12.6352 20.4265L12.6064 20.4694L12.5824 20.5075H12.564L12.5352 20.4646L12.5112 20.4265L12.4832 20.3837L12.4592 20.3456L12.4304 20.3027L12.4064 20.2646L12.3784 20.2217L12.3544 20.1836L12.3248 20.1408L12.3016 20.1027L12.2728 20.0598L12.2496 20.0217L12.22 19.9788L12.196 19.9407L12.168 19.8979L12.144 19.8598L12.1152 19.8169L12.0864 19.7788L12.0624 19.7351L12.0344 19.6978L12.0104 19.655L11.9816 19.6169L11.9576 19.574L11.9288 19.5359L11.9056 19.4922L11.8768 19.4549L11.8528 19.4121L11.824 19.374L11.8 19.3311L11.772 19.293L11.748 19.2501L11.7192 19.212L11.6952 19.1692L11.6672 19.1311V19.1787V19.2263V19.2732V19.3208V19.3684V19.416V19.4637V19.5113V19.5597V19.6073V19.6494V19.697V19.7447V19.7923V19.8399V19.8875V19.9352V19.9828V20.0304V20.0781V20.1265V20.1733V20.2209V20.2686V20.3162V20.3638V20.4114V20.4591V20.5067V20.5543V20.602V20.6496V20.6924V20.7401V20.7869V20.8345V20.8822V20.9298V20.9782V21.0258V21.0735V21.1211V21.1687H11.6192H11.5712H11.524H11.476H11.4288H11.3808H11.3328H11.2848H11.2376H11.1896H11.1416H11.0944H11.0464H10.9984H10.9512H10.9032H10.856H10.808H10.76V21.1211V21.0735V21.0258V20.9782V20.9306V20.883V20.8353V20.7885V20.7409V20.6932V20.6456V20.598V20.5504V20.5027V20.4551V20.4075V20.3598V20.3122V20.2702V20.2225V20.1749V20.1273V20.0796V20.032V19.9844V19.9368V19.8891V19.8415V19.7939V19.7463V19.6986V19.6518V19.6042V19.5565V19.5089V19.4613V19.4137V19.366V19.3184V19.2708V19.2239V19.1763V19.1287V19.0811V19.0334V18.9858V18.9382V18.8906V18.8429V18.7953V18.7477V18.7V18.6524V18.6056V18.5627V18.5151V18.4675V18.4198V18.3722V18.3246V18.277V18.2293V18.1825V18.1349V18.0872V18.0396V17.992V17.9444V17.8967V17.8491V17.8023V17.7546V17.707H10.808H10.856H10.8984H10.9464H10.9944H11.0424H11.0848H11.1328H11.18H11.228H11.2704H11.3184H11.3664H11.4136H11.4568H11.504H11.552H11.6H11.6432H11.6904H11.7384L11.7616 17.7451L11.7856 17.7872L11.8144 17.8253L11.8392 17.8682L11.8624 17.9063L11.8864 17.9491L11.9104 17.9864L11.9384 18.0301L11.9624 18.0674L11.9864 18.1055L12.0104 18.1484L12.0344 18.1865L12.0624 18.2293L12.0864 18.2674L12.1104 18.3095L12.1344 18.3476L12.1632 18.3857L12.1872 18.4286L12.2104 18.4667L12.2344 18.5087L12.2584 18.5468L12.2872 18.5897L12.3112 18.6278L12.3344 18.6707L12.3584 18.708L12.3824 18.7461L12.4112 18.7889L12.4352 18.827L12.4592 18.8699L12.4832 18.908L12.5064 18.9501L12.5352 18.989L12.5592 19.0311L12.5824 19.0692L12.6064 19.0311L12.6304 18.989L12.6592 18.9501L12.6832 18.908L12.7072 18.8699L12.7312 18.827L12.7592 18.7889L12.7832 18.7461L12.8072 18.708L12.8304 18.6707L12.86 18.6278L12.8832 18.5897L12.9072 18.5468L12.9312 18.5087L12.9592 18.4667L12.9832 18.4286L13.0072 18.3857L13.0312 18.3476L13.0552 18.3095L13.084 18.2674L13.108 18.2293L13.132 18.1865L13.1552 18.1484L13.184 18.1055L13.208 18.0674L13.232 18.0301L13.256 17.9864L13.284 17.9491L13.308 17.9063L13.332 17.8682L13.356 17.8253L13.3848 17.7872L13.4088 17.7451L13.4328 17.707H13.48H13.528H13.5704H13.6184H13.6664H13.7136H13.7568H13.804H13.852H13.9H13.9432H13.9904H14.0376H14.0856H14.1288H14.1768H14.224H14.272ZM10.3336 21.083L10.3144 21.0401L10.3 20.9925L10.2808 20.9496L10.2616 20.9068L10.2424 20.8639L10.2232 20.821L10.204 20.7782L10.1848 20.7306L10.1656 20.6877L10.1512 20.6448L10.132 20.602L10.1128 20.5591L10.0936 20.5162L10.0736 20.467L10.0544 20.4241L10.0352 20.3813L10.016 20.3384L10.0024 20.2956L9.98321 20.2527L9.96402 20.2051L9.94481 20.1622L9.92561 20.1193L9.90641 20.0765L9.88721 20.0336L9.86801 19.9907L9.85361 19.9431L9.83441 19.9002L9.81521 19.8574L9.79601 19.8145L9.77681 19.7717L9.75762 19.7288L9.73841 19.6812L9.71921 19.6383L9.70481 19.5954L9.68561 19.5526L9.66641 19.5097L9.64721 19.4668L9.62801 19.4192L9.61601 19.3843L9.59681 19.3414L9.57761 19.2986L9.56401 19.2557L9.54481 19.2128L9.52561 19.17L9.50641 19.1223L9.48721 19.0795L9.46801 19.0366L9.44881 18.9937L9.42961 18.9509L9.41521 18.908L9.39601 18.8604L9.37681 18.8175L9.35761 18.7747L9.33841 18.7318L9.31921 18.6889L9.30001 18.6461L9.28081 18.5984L9.26641 18.5556L9.24721 18.5127L9.22801 18.4698L9.20881 18.427L9.18961 18.3841L9.17041 18.3365L9.15121 18.2936L9.13201 18.2508L9.11841 18.2079L9.09921 18.165L9.08001 18.1222L9.06081 18.0745L9.04161 18.0317L9.02241 17.9888L9.00321 17.9459L8.98401 17.9031L8.97601 17.8682L8.95681 17.8205L8.93761 17.7777L8.91841 17.7348L8.89921 17.6919H8.85121H8.80801H8.75361H8.70641H8.65921H8.61601H8.56801H8.52001H8.47281H8.42961H8.38161H8.33361H8.28801H8.24481H8.19681H8.14961H8.10241H8.05841H8.01121L7.99201 17.7348L7.97281 17.7777L7.95361 17.8205L7.93921 17.8682L7.92001 17.9102L7.90081 17.9531L7.88161 17.996L7.86241 18.0388L7.84321 18.0817L7.82401 18.1293L7.80481 18.1722L7.79121 18.215L7.77201 18.2579L7.75281 18.3008L7.73361 18.3436L7.71441 18.3913L7.69521 18.4341L7.67601 18.477L7.65681 18.5199L7.64241 18.5627L7.62321 18.6056L7.60401 18.6532L7.58481 18.6961L7.56561 18.7389L7.54641 18.7818L7.52721 18.8247L7.50801 18.8675L7.49361 18.9152L7.47441 18.958L7.45521 19.0009L7.43601 19.0438L7.41681 19.0866L7.39761 19.1295L7.37841 19.1771L7.35921 19.22L7.34481 19.2628L7.32561 19.3057L7.30641 19.3486L7.28721 19.3914L7.26801 19.4343L7.24881 19.4819L7.22961 19.5248L7.21041 19.5677L7.19601 19.6105L7.17681 19.6534L7.15761 19.6962L7.13841 19.7439L7.11921 19.7867L7.10001 19.8296L7.08081 19.8725L7.06161 19.9153L7.04721 19.9582L7.02801 20.0058L7.00881 20.0487L6.98961 20.0916L6.97041 20.1344L6.95121 20.1773L6.93201 20.2201L6.91281 20.2678L6.89281 20.3098L6.87361 20.3527L6.85441 20.3956L6.83521 20.4384L6.81601 20.4813L6.79681 20.5289L6.79041 20.5591L6.77041 20.602L6.75601 20.6448L6.73681 20.6877L6.71761 20.7306L6.69841 20.7782L6.67921 20.821L6.66001 20.8639L6.64081 20.9068L6.62161 20.9496L6.60721 20.9925L6.58801 21.0401L6.56881 21.083L6.54961 21.1259L6.53041 21.1687H6.57761H6.62561H6.67281H6.72081H6.77361H6.82081H6.86801H6.91601H6.96401H7.01121H7.05841H7.10641H7.15441H7.20161H7.25441H7.30161H7.34961H7.39681H7.44401H7.49121L7.51041 21.1259L7.52481 21.083L7.54401 21.0401L7.56321 20.9925L7.57761 20.9496L7.59681 20.9068L7.61601 20.8639L7.63041 20.821L7.64961 20.7782L7.66881 20.7353L7.68241 20.6924L7.70161 20.6448L7.72081 20.602L7.73521 20.5591L7.75441 20.5162H7.80161H7.84961H7.89761H7.94481H7.98801H8.03521H8.08241H8.12961H8.17761H8.22561H8.27281H8.32001H8.36801H8.41601H8.45921H8.50641H8.55441H8.60161H8.65201H8.70001H8.74721H8.79521H8.84241H8.89041H8.93361H8.98081H9.02801H9.07521H9.12241L9.14161 20.5591L9.15601 20.602L9.17521 20.6448L9.19441 20.6924L9.20881 20.7353L9.22801 20.7782L9.24721 20.821L9.26081 20.8639L9.28001 20.9068L9.29921 20.9496L9.31281 20.9925L9.33201 21.0401L9.35121 21.083L9.36561 21.1259L9.38481 21.1687H9.43281H9.48001H9.52321H9.57041H9.61841H9.66641H9.71361H9.75681H9.80482H9.85281H9.90001H9.94722H9.99521H10.0384H10.0864H10.1336H10.1816H10.2288H10.272H10.32H10.3672L10.348 21.1259L10.3336 21.083ZM8.79761 19.7844H8.74961H8.70241H8.65441H8.60721H8.56001H8.51201H8.46481H8.42161H8.37361H8.32561H8.27841H8.23121H8.18321H8.13521H8.08801H8.04001L8.05921 19.7415L8.07361 19.6986L8.09281 19.651L8.11201 19.6081L8.12561 19.5653L8.14481 19.5224L8.16401 19.4748L8.18321 19.4319L8.19761 19.3891L8.21681 19.3462L8.23601 19.3033L8.24961 19.2557L8.26881 19.2128L8.28801 19.17L8.30241 19.1271L8.32161 19.0842L8.34081 19.0366L8.36001 18.9937L8.37361 18.9509L8.39281 18.908L8.41201 18.8604L8.42641 18.8175L8.44561 18.7747L8.46481 18.8175L8.47921 18.8604L8.49841 18.908L8.51761 18.9509L8.53201 18.9937L8.55121 19.0366L8.57041 19.0842L8.58481 19.1271L8.60401 19.17L8.62321 19.2128L8.63681 19.2557L8.65761 19.3025L8.67201 19.3454L8.69121 19.3883L8.71041 19.4311L8.72481 19.474L8.74401 19.5216L8.76321 19.5645L8.77761 19.6073L8.79681 19.6502L8.81601 19.6978L8.83041 19.7407L8.84961 19.7836L8.79761 19.7844ZM6.03521 19.1525H6.08241H6.13041H6.17761V19.2001V19.247V19.2946V19.3375V19.3851V19.4327V19.4803V19.528V19.5756V19.6185V19.6661V19.7137V19.7613V19.8082V19.8558V19.9034V19.9463V19.9939V20.0415V20.0892V20.1368V20.1844V20.232V20.2741V20.3217V20.3694V20.417V20.4646V20.5123V20.5551V20.6027V20.6504V20.6972L6.14481 20.7266L6.10641 20.7544L6.07281 20.7782L6.03521 20.8068L5.99681 20.8306L5.95841 20.8591L5.92001 20.883L5.88241 20.9068L5.83921 20.9306L5.79681 20.9544L5.75361 20.9782L5.71041 20.9973L5.66801 21.0211L5.62001 21.0401L5.57681 21.0592L5.52881 21.0774L5.48641 21.0973L5.44321 21.1108L5.40001 21.1251L5.35761 21.1393L5.30961 21.1536L5.26641 21.1687L5.21841 21.1775L5.17601 21.187L5.12881 21.1965L5.08081 21.206L5.03281 21.2108L4.98001 21.2163L4.93281 21.2203L4.88001 21.2251L4.83201 21.2298L4.78001 21.2346H4.72721H4.67521H4.62241H4.57441L4.52721 21.2298L4.47441 21.2251L4.42721 21.2203L4.38001 21.2163L4.33201 21.2108L4.28401 21.2013L4.23601 21.1925L4.19361 21.1822L4.14561 21.1727L4.10241 21.1584L4.05521 21.1489L4.01201 21.1346L3.96881 21.1155L3.92561 21.1012L3.87841 21.083L3.83521 21.0639L3.79281 21.0441L3.74961 21.0258L3.70641 21.002L3.66801 20.9782L3.62561 20.9544L3.58721 20.9306L3.54881 20.9068L3.51121 20.8782L3.4728 20.8496L3.43441 20.8218L3.40081 20.7925L3.36801 20.7647L3.33441 20.7305L3.30081 20.7028L3.2672 20.6694L3.2344 20.6353L3.2056 20.6027L3.1768 20.5646L3.14801 20.5313L3.124 20.4932L3.0952 20.4551L3.0712 20.417L3.048 20.3789L3.024 20.336L3 20.2979L2.9816 20.2559L2.9624 20.2122L2.9424 20.1701L2.924 20.1273L2.9096 20.0892L2.8904 20.0463L2.8808 20.0034L2.8672 19.9606L2.8576 19.9129L2.8432 19.8701L2.8336 19.8232L2.8288 19.7796L2.8192 19.732L2.8136 19.6899L2.8096 19.6423L2.8048 19.5946L2.8 19.547V19.4946V19.447V19.4375V19.3898L2.8048 19.3375V19.2898L2.8096 19.2422L2.8136 19.1898L2.8232 19.143L2.8288 19.0953L2.8376 19.0525L2.8528 19.0049L2.8616 18.958L2.876 18.9144L2.8904 18.8667L2.9048 18.8247L2.924 18.777L2.9424 18.7342L2.9624 18.6913L2.9816 18.6484L3 18.6056L3.024 18.5627L3.048 18.5246L3.0712 18.4865L3.0952 18.4484L3.1192 18.4103L3.14801 18.3722L3.1768 18.3349L3.2056 18.2968L3.2344 18.2635L3.2672 18.2293L3.296 18.196L3.3296 18.1634L3.36321 18.1301L3.396 18.1015L3.43441 18.0682L3.46801 18.0396L3.50561 18.011L3.54401 17.9872L3.58241 17.9586L3.62081 17.9356L3.65841 17.9118L3.70161 17.888L3.74481 17.8642L3.78721 17.8404L3.83041 17.8205L3.87361 17.8023L3.92161 17.7785L3.95921 17.7634L4.00721 17.7491L4.05041 17.7308L4.09281 17.7213L4.13601 17.707L4.18401 17.6975L4.22641 17.6832L4.27441 17.6737L4.32161 17.6689L4.36961 17.6594L4.41761 17.6538L4.46481 17.6499L4.51281 17.6451L4.56081 17.6403H4.61361H4.66081H4.71281H4.76561L4.81841 17.6451L4.87121 17.6499H4.91841L4.96641 17.6538L5.01841 17.6641L5.06161 17.6689L5.10961 17.6776L5.15681 17.688L5.20001 17.6975L5.24241 17.707L5.28561 17.7165L5.32881 17.7308L5.37121 17.7396L5.41041 17.7546L5.45281 17.7689L5.49601 17.7872L5.53921 17.8062L5.58161 17.8261L5.62481 17.8491L5.66801 17.8682L5.70641 17.892L5.74881 17.9158L5.78721 17.9396L5.82961 17.9634L5.86801 17.992L5.90561 18.0158L5.94401 18.0444L5.98241 18.0729L6.02081 18.1063L6.05921 18.1349L6.03041 18.173L5.99681 18.2063L5.96801 18.2436L5.93441 18.2825L5.90561 18.3206L5.87761 18.3532L5.84401 18.392L5.81521 18.4294L5.78721 18.4627L5.75361 18.5016L5.72481 18.5389L5.69121 18.577L5.66241 18.6103L5.63441 18.6484L5.60081 18.6865L5.57201 18.7239L5.53921 18.758L5.51041 18.7953L5.47201 18.7675L5.43361 18.7342L5.39521 18.7104L5.35761 18.6818L5.31921 18.658L5.28161 18.6342L5.24241 18.6103L5.20001 18.5865L5.16161 18.5675L5.12321 18.5484L5.08561 18.5341L5.04241 18.5198L5.00001 18.5056L4.95681 18.496L4.90881 18.4865L4.86161 18.477L4.81361 18.4722L4.76081 18.4675L4.70881 18.4627H4.65601H4.60801L4.56081 18.4675L4.51761 18.4722L4.46961 18.4817L4.42721 18.4913L4.38401 18.5056L4.34081 18.5198L4.29841 18.5389L4.25521 18.558L4.21681 18.5818L4.17921 18.6056L4.14081 18.6294L4.10721 18.658L4.07361 18.6865L4.04081 18.7151L4.01201 18.7477L3.97841 18.7818L3.94961 18.8191L3.92561 18.8532L3.90161 18.8905L3.87841 18.9342L3.85441 18.9715L3.83521 19.0144L3.82081 19.0572L3.80161 19.1001L3.78721 19.1477L3.77761 19.1954L3.76881 19.2374L3.75921 19.2898L3.75441 19.3375L3.74961 19.3851V19.4375V19.447V19.4946L3.75441 19.5422L3.75921 19.5851L3.76321 19.6327L3.77281 19.6748L3.78321 19.7185L3.79281 19.7613L3.80721 19.8034L3.82081 19.8415L3.84001 19.8891L3.85921 19.932L3.88321 19.9749L3.90641 20.013L3.93041 20.0511L3.95921 20.0892L3.98801 20.1225L4.02081 20.1551L4.05041 20.1884L4.08321 20.2178L4.12161 20.2463L4.16001 20.2741L4.19761 20.2979L4.23601 20.3217L4.27921 20.3416L4.32161 20.3598L4.36481 20.3789L4.41281 20.3932L4.46081 20.4075L4.50881 20.417L4.55601 20.4265L4.60321 20.4313L4.65601 20.4361H4.70881H4.76561L4.81841 20.4313L4.87121 20.4265L4.91841 20.4218L4.96641 20.4122L5.01441 20.4027L5.06161 20.3892L5.10481 20.3789L5.14721 20.3598L5.18561 20.3416L5.22801 20.3217L5.26241 20.3035L5.30001 20.2797V20.232V20.1844V20.1368V20.0892V20.0368V19.9891V19.9415V19.8939V19.8471H5.25201H5.20961H5.16161H5.11361H5.06641H5.02321H4.97601H4.92801H4.88001H4.83761H4.78961H4.74241H4.69441H4.65121H4.60321V19.7994V19.7558V19.7081V19.6605V19.6129V19.5708V19.5232V19.4756V19.4279V19.3851V19.3375V19.2898V19.2422V19.2001V19.1525H4.65121H4.69921H4.74641H4.79441H4.84161H4.88961H4.93761H4.98481H5.03281H5.08081H5.12881H5.17601H5.22401H5.27121H5.31921H5.36721H5.41441H5.46241H5.51041H5.55761H5.60481H5.65281H5.70081H5.74881H5.79681H5.84401H5.89201H5.94001H5.98721H6.03521Z" fill="url(#paint0_linear_35_587)"/>
<defs>
<linearGradient id="paint0_linear_35_587" x1="0" y1="14.9994" x2="24" y2="14.9994" gradientUnits="userSpaceOnUse">
<stop stop-color="white"/>
<stop offset="1" stop-color="white"/>
</linearGradient>
</defs>
</svg>
