<svg width="16" height="16" viewBox="0 0 16 16" fill="none" xmlns="http://www.w3.org/2000/svg">
<path fill-rule="evenodd" clip-rule="evenodd" d="M15.1617 5.88054C15.1617 9.12827 12.5289 11.7611 9.28119 11.7611C8.00423 11.7611 6.82233 11.3541 5.85815 10.6627L1.54441 14.9764C1.19111 15.3297 0.618286 15.3297 0.26498 14.9764C-0.0883265 14.6231 -0.0883267 14.0503 0.26498 13.697L4.56638 9.39557C3.83417 8.41503 3.40065 7.19841 3.40065 5.88054C3.40065 2.63281 6.03346 0 9.28119 0C12.5289 0 15.1617 2.63281 15.1617 5.88054ZM13.3523 5.88054C13.3523 8.12897 11.5296 9.95168 9.28118 9.95168C7.03275 9.95168 5.21003 8.12897 5.21003 5.88054C5.21003 3.63211 7.03275 1.8094 9.28118 1.8094C11.5296 1.8094 13.3523 3.63211 13.3523 5.88054Z" fill="url(#paint0_linear_35_603)" fill-opacity="0.75"/>
<defs>
<linearGradient id="paint0_linear_35_603" x1="19.4643" y1="7.62069" x2="-4.71242" y2="7.62069" gradientUnits="userSpaceOnUse">
<stop stop-color="#BCE2F3"/>
<stop offset="1" stop-color="#E9E9E9"/>
</linearGradient>
</defs>
</svg>
