<svg width="19" height="23" viewBox="0 0 19 23" fill="none" xmlns="http://www.w3.org/2000/svg">
<path d="M1 8.58333L0.364293 7.8114C0.133629 8.00136 0 8.28452 0 8.58333H1ZM1 22H0C0 22.5523 0.447715 23 1 23L1 22ZM18 22V23C18.5523 23 19 22.5523 19 22H18ZM18 8.58333H19C19 8.31342 18.8909 8.05497 18.6975 7.86671L18 8.58333ZM10.2083 1L10.9058 0.283378C10.5405 -0.0721822 9.96615 -0.0960084 9.57263 0.22807L10.2083 1ZM8.5 17.9167C8.5 18.469 8.94772 18.9167 9.5 18.9167C10.0523 18.9167 10.5 18.469 10.5 17.9167H8.5ZM10.5 16C10.5 15.4477 10.0523 15 9.5 15C8.94772 15 8.5 15.4477 8.5 16H10.5ZM0 8.58333V22H2V8.58333H0ZM1 23H18V21H1V23ZM18.6975 7.86671L10.9058 0.283378L9.51087 1.71662L17.3025 9.29996L18.6975 7.86671ZM9.57263 0.22807L0.364293 7.8114L1.63571 9.35526L10.844 1.77193L9.57263 0.22807ZM10.5 17.9167V16H8.5V17.9167H10.5ZM19 22V15.2917H17V22H19ZM19 15.2917V8.58333H17V15.2917H19Z" fill="white"/>
</svg>
