<svg width="11" height="14" viewBox="0 0 11 14" fill="none" xmlns="http://www.w3.org/2000/svg">
<path d="M10.1466 3.4384C8.38766 3.24231 6.61815 3.14128 4.85391 3.14128C3.80805 3.14128 2.76218 3.20071 1.71632 3.31956L0.638763 3.4384M3.54394 2.83822L3.66015 2.05977C3.74466 1.49524 3.80805 1.07333 4.70073 1.07333H6.08465C6.97733 1.07333 7.046 1.51901 7.12523 2.06571L7.24144 2.83822M9.01096 5.31621L8.66762 11.3002C8.60951 12.2332 8.56197 12.9581 7.08826 12.9581H3.69712C2.22341 12.9581 2.17587 12.2332 2.11776 11.3002L1.77442 5.31621M4.51057 9.68982H6.26953M4.07216 7.31285H6.71323" stroke="white" stroke-linecap="round" stroke-linejoin="round"/>
</svg>
